<svg class="block h-auto w-full" viewBox="0 0 268 82" fill="none" xmlns="http://www.w3.org/2000/svg" role="img"><path d="M18.0744 4.3177C29.5908 7.40458 21.7148 32.9086 37.4396 45.1319C37.6713 45.2801 37.8249 45.5393 37.8249 45.8332C37.8249 46.1061 37.6826 46.3668 37.4593 46.5255C20.0124 58.9225 31.2069 82 18.724 82H1.88509C1.39848 82 1.01061 81.5712 1.0543 81.0894C3.33277 55.9627 17.5936 49.6802 24.0178 46.6748C23.946 46.6672 23.8766 46.6504 23.8081 46.6226C16.7439 43.7528 2.42298 30.7323 0.00271864 0.899835C-0.0362587 0.419388 0.348926 1.05526e-05 0.833735 0L18.0744 4.3177Z" fill="url(#paint0_linear_1727_310)"/><path d="M63.8781 23.2819C64.9691 23.2819 65.7586 24.2999 65.3902 25.3209C62.7214 32.7176 55.0814 44.5946 47.1992 45.8003H48.9621C57.3306 45.8003 63.1394 59.1678 65.5081 67.2718C65.8109 68.3076 65.016 69.3152 63.931 69.3152H53.9496C44.8147 69.3152 44.023 51.0939 40.4434 47.3071C40.0686 46.9106 39.7287 46.4191 39.7192 45.88H39.7189C39.7105 45.3582 40.0385 44.8933 40.4229 44.5379C44.216 41.0317 46.3581 23.2819 53.9341 23.2819H63.8781Z" fill="#0023D9"/><path d="M84.9023 34.3845C86.6183 34.3845 88.1753 34.5759 89.5731 34.9586C90.9709 35.3413 92.1471 35.8647 93.1017 36.5288C94.0563 37.1817 94.8575 37.964 95.5053 38.8758C96.1531 39.7876 96.6247 40.7669 96.9202 41.8137C97.2156 42.8605 97.3634 43.9693 97.3634 45.14C97.3634 47.0535 97.0168 48.8095 96.3235 50.4079C95.6417 51.9951 94.7325 53.2952 93.5961 54.3083C92.471 55.3213 91.1982 56.1037 89.7776 56.6552C88.3685 57.2068 86.9138 57.4826 85.4137 57.4826H74.8789V56.9929C76.0381 56.9254 76.8506 56.7228 77.3166 56.3851C77.7825 56.0474 78.0155 55.3889 78.0155 54.4096V37.4237C78.0155 36.4669 77.7768 35.8197 77.2995 35.482C76.8336 35.1443 76.0267 34.9417 74.8789 34.8742V34.3845H84.9023ZM85.4137 56.5201C88.0502 56.5201 90.1356 55.5859 91.6698 53.7173C93.204 51.8375 93.9711 49.2429 93.9711 45.9335C93.9711 44.6053 93.7609 43.3221 93.3404 42.0839C92.9199 40.8344 92.3176 39.7031 91.5334 38.6901C90.7493 37.677 89.7322 36.8665 88.4821 36.2587C87.232 35.6508 85.8399 35.3469 84.3057 35.3469H81.2032V54.4771C81.2032 55.2763 81.4987 55.8166 82.0896 56.098C82.6919 56.3794 83.8 56.5201 85.4137 56.5201Z" fill="#0023D9"/><path d="M107.891 55.5071C110.062 55.5071 111.761 54.5278 112.988 52.5692L113.38 52.738C112.96 54.2576 112.125 55.5127 110.875 56.5033C109.624 57.4826 108.13 57.9722 106.391 57.9722C104.766 57.9722 103.34 57.5839 102.113 56.8072C100.897 56.0192 99.9704 54.9668 99.334 53.6498C98.7089 52.3215 98.3964 50.8301 98.3964 49.1754C98.3964 46.3388 99.1578 44.0425 100.681 42.2865C102.215 40.5192 104.221 39.6356 106.698 39.6356C108.778 39.6356 110.403 40.3335 111.573 41.7293C112.755 43.1251 113.358 44.9542 113.38 47.2168H101.397C101.374 47.3518 101.363 47.5713 101.363 47.8753C101.283 50.2053 101.84 52.0626 103.033 53.4472C104.238 54.8204 105.857 55.5071 107.891 55.5071ZM106.187 40.6149C104.971 40.6149 103.948 41.1327 103.118 42.1683C102.289 43.2039 101.749 44.5603 101.499 46.2375H110.193C110.17 45.2694 109.999 44.3689 109.681 43.5359C109.374 42.6917 108.914 41.9938 108.3 41.4422C107.687 40.8907 106.982 40.6149 106.187 40.6149Z" fill="#0023D9"/><path d="M130.932 54.9161C130.932 55.6028 131.125 56.0868 131.511 56.3682C131.898 56.6383 132.471 56.8466 133.233 56.9929V57.4826H125.681V56.9929C126.465 56.8466 127.051 56.6383 127.437 56.3682C127.835 56.0868 128.034 55.6028 128.034 54.9161V45.1062C128.034 44.0368 127.744 43.1926 127.164 42.5735C126.596 41.9544 125.812 41.6449 124.812 41.6449C123.925 41.6449 123.096 41.8644 122.323 42.3034C121.55 42.7311 120.715 43.4571 119.817 44.4815V54.9161C119.817 55.6028 120.01 56.0868 120.397 56.3682C120.783 56.6383 121.363 56.8466 122.135 56.9929V57.4826H114.584V56.9929C115.368 56.8466 115.953 56.6383 116.34 56.3682C116.726 56.0868 116.919 55.6028 116.919 54.9161V43.3333C116.919 42.748 116.771 42.3146 116.476 42.0332C116.192 41.7405 115.737 41.5773 115.112 41.5436H114.277V41.0539L119.34 39.6356H119.817V43.6541C120.863 42.3146 121.868 41.3128 122.834 40.6487C123.8 39.9733 124.869 39.6356 126.039 39.6356C127.585 39.6356 128.784 40.1027 129.636 41.037C130.5 41.96 130.932 43.2601 130.932 44.9373V54.9161Z" fill="#0023D9"/><path d="M148.96 56.0643L149.812 56.098V56.5877L144.75 58.006H144.255V53.5485C143.755 54.933 142.977 56.0249 141.92 56.8241C140.874 57.612 139.687 58.006 138.357 58.006C136.993 58.006 135.88 57.5895 135.016 56.7565C134.164 55.9123 133.737 54.8261 133.737 53.4978C133.737 51.8319 134.328 50.5486 135.51 49.6481C136.704 48.7476 138.709 48.0272 141.528 47.4869L144.255 46.9635V45.7985C144.255 44.1888 143.892 42.9225 143.164 41.9994C142.437 41.0764 141.437 40.6149 140.164 40.6149C139.493 40.6149 138.891 40.7725 138.357 41.0877C137.834 41.4028 137.448 41.8081 137.198 42.3034C136.948 42.7986 136.806 43.3615 136.772 43.9918C136.738 44.6109 136.88 45.2244 137.198 45.8322L134.47 46.7609C134.129 46.0292 133.953 45.3201 133.942 44.6334C133.942 43.9355 134.129 43.2883 134.505 42.6917C134.88 42.0839 135.363 41.5548 135.953 41.1046C136.544 40.643 137.26 40.2828 138.101 40.0239C138.954 39.765 139.851 39.6356 140.795 39.6356C142.749 39.6356 144.295 40.1984 145.431 41.324C146.579 42.4384 147.153 43.9524 147.153 45.866V54.2745C147.153 54.8823 147.295 55.327 147.579 55.6084C147.875 55.8785 148.335 56.0305 148.96 56.0643ZM144.255 52.5692V47.9766L141.63 48.5C139.959 48.8152 138.726 49.3048 137.931 49.9689C137.147 50.6331 136.755 51.5336 136.755 52.6705C136.755 53.6385 137.044 54.4433 137.624 55.085C138.215 55.7153 138.959 56.0305 139.857 56.0305C140.744 56.0305 141.585 55.7153 142.38 55.085C143.176 54.4546 143.801 53.616 144.255 52.5692Z" fill="#0023D9"/><path d="M154.885 54.9161C154.885 55.6028 155.079 56.0868 155.465 56.3682C155.851 56.6383 156.425 56.8466 157.187 56.9929V57.4826H149.652V56.9929C150.436 56.8466 151.022 56.6383 151.408 56.3682C151.794 56.0868 151.988 55.6028 151.988 54.9161V36.7652C151.988 36.1686 151.845 35.7296 151.561 35.4482C151.277 35.1668 150.817 35.0092 150.181 34.9755H149.328V34.4858L154.391 33.0675H154.885V54.9161Z" fill="#0023D9"/><path d="M161.595 37.2886C160.947 37.2886 160.413 37.0917 159.993 36.6977C159.572 36.3037 159.362 35.8084 159.362 35.2118C159.362 34.6153 159.572 34.12 159.993 33.726C160.413 33.332 160.947 33.135 161.595 33.135C162.197 33.135 162.703 33.3377 163.112 33.7429C163.521 34.1369 163.726 34.6265 163.726 35.2118C163.726 35.7972 163.521 36.2925 163.112 36.6977C162.703 37.0917 162.197 37.2886 161.595 37.2886ZM163.266 54.9161C163.266 55.6028 163.459 56.0868 163.845 56.3682C164.232 56.6383 164.811 56.8466 165.584 56.9929V57.4826H158.032V56.9929C158.816 56.8466 159.402 56.6383 159.788 56.3682C160.174 56.0868 160.368 55.6028 160.368 54.9161V43.3333C160.368 42.748 160.226 42.3146 159.941 42.0332C159.657 41.7405 159.197 41.5661 158.561 41.5098H157.725V41.0201L162.788 39.6018H163.266V54.9161Z" fill="#0023D9"/><path d="M199.661 34.8742C198.524 34.9417 197.717 35.1499 197.24 35.4989C196.763 35.8366 196.524 36.4782 196.524 37.4237V54.4096C196.524 55.3776 196.757 56.0305 197.223 56.3682C197.7 56.6946 198.513 56.9029 199.661 56.9929V57.4826H190.234V56.9929C191.382 56.9029 192.189 56.6946 192.655 56.3682C193.132 56.0305 193.371 55.3776 193.371 54.4096V46.1361H181.233V54.4096C181.233 55.3889 181.461 56.0418 181.915 56.3682C182.381 56.6946 183.188 56.9029 184.336 56.9929V57.4826H174.909V56.9929C176.068 56.9029 176.881 56.6946 177.347 56.3682C177.813 56.0418 178.046 55.3889 178.046 54.4096V37.4237C178.046 36.4669 177.807 35.8197 177.33 35.482C176.864 35.1443 176.057 34.9417 174.909 34.8742V34.3845H184.336V34.8742C183.211 34.9417 182.41 35.1443 181.932 35.482C181.466 35.8197 181.233 36.4669 181.233 37.4237V45.1737H193.371V37.4237C193.371 36.4782 193.132 35.8366 192.655 35.4989C192.177 35.1499 191.37 34.9417 190.234 34.8742V34.3845H199.661V34.8742Z" fill="#0023D9"/><path d="M208.672 55.5071C210.842 55.5071 212.541 54.5278 213.769 52.5692L214.161 52.738C213.74 54.2576 212.905 55.5127 211.655 56.5033C210.405 57.4826 208.91 57.9722 207.172 57.9722C205.546 57.9722 204.12 57.5839 202.893 56.8072C201.677 56.0192 200.751 54.9668 200.114 53.6498C199.489 52.3215 199.177 50.8301 199.177 49.1754C199.177 46.3388 199.938 44.0425 201.461 42.2865C202.995 40.5192 205.001 39.6356 207.478 39.6356C209.558 39.6356 211.183 40.3335 212.354 41.7293C213.536 43.1251 214.138 44.9542 214.161 47.2168H202.177C202.154 47.3518 202.143 47.5713 202.143 47.8753C202.063 50.2053 202.62 52.0626 203.813 53.4472C205.018 54.8204 206.637 55.5071 208.672 55.5071ZM206.967 40.6149C205.751 40.6149 204.728 41.1327 203.899 42.1683C203.069 43.2039 202.529 44.5603 202.279 46.2375H210.973C210.95 45.2694 210.78 44.3689 210.462 43.5359C210.155 42.6917 209.694 41.9938 209.081 41.4422C208.467 40.8907 207.762 40.6149 206.967 40.6149Z" fill="#0023D9"/><path d="M230.928 56.0643L231.78 56.098V56.5877L226.717 58.006H226.223V53.5485C225.723 54.933 224.944 56.0249 223.887 56.8241C222.842 57.612 221.654 58.006 220.325 58.006C218.961 58.006 217.847 57.5895 216.984 56.7565C216.131 55.9123 215.705 54.8261 215.705 53.4978C215.705 51.8319 216.296 50.5486 217.478 49.6481C218.671 48.7476 220.677 48.0272 223.495 47.4869L226.223 46.9635V45.7985C226.223 44.1888 225.859 42.9225 225.132 41.9994C224.405 41.0764 223.404 40.6149 222.132 40.6149C221.461 40.6149 220.859 40.7725 220.325 41.0877C219.802 41.4028 219.416 41.8081 219.166 42.3034C218.916 42.7986 218.773 43.3615 218.739 43.9918C218.705 44.6109 218.847 45.2244 219.166 45.8322L216.438 46.7609C216.097 46.0292 215.921 45.3201 215.91 44.6334C215.91 43.9355 216.097 43.2883 216.472 42.6917C216.847 42.0839 217.33 41.5548 217.921 41.1046C218.512 40.643 219.228 40.2828 220.069 40.0239C220.921 39.765 221.819 39.6356 222.762 39.6356C224.717 39.6356 226.263 40.1984 227.399 41.324C228.547 42.4384 229.121 43.9524 229.121 45.866V54.2745C229.121 54.8823 229.263 55.327 229.547 55.6084C229.842 55.8785 230.303 56.0305 230.928 56.0643ZM226.223 52.5692V47.9766L223.598 48.5C221.927 48.8152 220.694 49.3048 219.899 49.9689C219.114 50.6331 218.722 51.5336 218.722 52.6705C218.722 53.6385 219.012 54.4433 219.592 55.085C220.183 55.7153 220.927 56.0305 221.825 56.0305C222.711 56.0305 223.552 55.7153 224.348 55.085C225.143 54.4546 225.768 53.616 226.223 52.5692Z" fill="#0023D9"/><path d="M236.853 54.9161C236.853 55.6028 237.046 56.0868 237.433 56.3682C237.819 56.6383 238.393 56.8466 239.154 56.9929V57.4826H231.62V56.9929C232.404 56.8466 232.989 56.6383 233.376 56.3682C233.762 56.0868 233.955 55.6028 233.955 54.9161V36.7652C233.955 36.1686 233.813 35.7296 233.529 35.4482C233.245 35.1668 232.785 35.0092 232.148 34.9755H231.296V34.4858L236.359 33.0675H236.853V54.9161Z" fill="#0023D9"/><path d="M248.983 55.4395L249.222 55.6084C248.927 56.2387 248.449 56.7959 247.79 57.28C247.131 57.764 246.273 58.006 245.216 58.006C243.932 58.006 242.921 57.5951 242.182 56.7734C241.455 55.9517 241.091 54.8036 241.091 53.329V41.1214H239.165V40.6487L243.494 36.3262H243.989V40.159H249.154V41.1214H243.989V53.2614C243.989 54.2295 244.222 54.9893 244.688 55.5408C245.165 56.0924 245.841 56.3682 246.716 56.3682C247.091 56.3682 247.438 56.3119 247.756 56.1993C248.074 56.0868 248.296 55.9855 248.421 55.8954C248.557 55.7941 248.745 55.6422 248.983 55.4395Z" fill="#0023D9"/><path d="M265.699 54.9161C265.699 55.6028 265.893 56.0868 266.279 56.3682C266.665 56.6383 267.239 56.8466 268.001 56.9929V57.4826H260.5V56.9929C261.262 56.8466 261.835 56.6383 262.222 56.3682C262.608 56.0868 262.801 55.6028 262.801 54.9161V45.1062C262.801 44.0368 262.517 43.1926 261.949 42.5735C261.381 41.9544 260.597 41.6449 259.597 41.6449C258.733 41.6449 257.915 41.8587 257.142 42.2865C256.381 42.703 255.568 43.4009 254.704 44.3802V54.9161C254.704 55.6028 254.897 56.0868 255.284 56.3682C255.67 56.6383 256.244 56.8466 257.006 56.9929V57.4826H249.471V56.9929C250.255 56.8466 250.84 56.6383 251.227 56.3682C251.613 56.0868 251.806 55.6028 251.806 54.9161V36.7652C251.806 36.1686 251.664 35.7296 251.38 35.4482C251.096 35.1668 250.636 35.0092 249.999 34.9755H249.147V34.4858L254.21 33.0675H254.704V43.519C255.693 42.2358 256.67 41.2678 257.636 40.6149C258.614 39.962 259.682 39.6356 260.841 39.6356C262.375 39.6356 263.569 40.1027 264.421 41.037C265.273 41.96 265.699 43.2601 265.699 44.9373V54.9161Z" fill="#0023D9"/><defs><linearGradient id="paint0_linear_1727_310" x1="18.9034" y1="0" x2="18.9034" y2="46.6795" gradientUnits="userSpaceOnUse"><stop stop-color="#29F7CE"/><stop offset="0.9" stop-color="#0023D9"/><stop offset="1" stop-color="#0023D9"/></linearGradient></defs></svg>